<svg width="32" height="32" viewBox="0 0 32 32" fill="none" xmlns="http://www.w3.org/2000/svg">
<g id="Layer_1">
<path id="Vector" d="M14.1923 13.7603C14.1923 13.0371 15.2501 12.9136 16.1677 12.9136C17.0325 12.9136 18.2142 13.3189 19.2022 13.8312L19.3959 11.8377C18.9017 11.5552 17.7554 11.22 16.591 11.1499L16.8732 9.12109H14.9857L15.2682 11.1499C12.834 11.3789 12.04 12.79 12.04 13.972C12.04 16.9531 17.5962 16.3187 17.5962 18.1525C17.5962 18.8411 16.944 19.0875 15.7971 19.0875C14.2451 19.0875 13.0804 18.5412 12.4811 17.9763L12.1809 20.2168C12.7459 20.552 13.8919 20.8518 15.2682 20.9227L14.9857 22.8807H16.8732L16.591 20.9047C19.4487 20.6575 19.9602 19.1403 19.9602 18.1352C19.9602 14.5898 14.1923 15.4713 14.1923 13.7603Z" fill="#4B16C9" fill-opacity="0.6"/>
</g>
</svg>
