<svg width="36" height="36" viewBox="0 0 36 36" fill="none" xmlns="http://www.w3.org/2000/svg">
<g id="Layer_1">
<g id="Group">
<path id="Vector" d="M24.8874 11.4371C24.8874 7.54512 21.7329 4.39062 17.8404 4.39062C13.9479 4.39062 10.7939 7.54512 10.7939 11.4371C10.7939 17.0131 17.8404 25.2639 17.8404 25.2639C17.8404 25.2639 24.8874 16.9844 24.8874 11.4371ZM14.3653 11.0163C14.3653 9.0965 15.9217 7.54062 17.8409 7.54062C19.7602 7.54062 21.3166 9.0965 21.3166 11.0163C21.3166 12.9361 19.7602 14.492 17.8409 14.492C15.9217 14.492 14.3653 12.9361 14.3653 11.0163Z" fill="#4A3D90"/>
<path id="Vector_2" d="M17.8407 12.7244C18.7845 12.7244 19.5496 11.9593 19.5496 11.0155C19.5496 10.0717 18.7845 9.30664 17.8407 9.30664C16.8969 9.30664 16.1318 10.0717 16.1318 11.0155C16.1318 11.9593 16.8969 12.7244 17.8407 12.7244Z" fill="#4A3D90"/>
<path id="Vector_3" d="M21.8248 22.8125C21.2504 23.6422 20.7116 24.3656 20.2627 24.9461C24.7154 25.2132 27.6337 26.1746 28.7193 26.8901C27.4475 27.7288 23.6681 28.9077 17.8417 28.9077C12.0153 28.9077 8.23588 27.7282 6.96406 26.8901C8.04969 26.1751 10.9657 25.2144 15.4139 24.9466C14.9639 24.3661 14.4245 23.6433 13.8496 22.8136C8.37031 23.3531 4.39062 24.9742 4.39062 26.8895C4.39062 29.2464 10.4133 31.1577 17.8417 31.1577C25.2706 31.1577 31.2922 29.2469 31.2922 26.8895C31.2933 24.9731 27.3091 23.3514 21.8248 22.8125Z" fill="#4A3D90"/>
</g>
</g>
</svg>
