<svg width="26" height="26" viewBox="0 0 26 26" fill="none" xmlns="http://www.w3.org/2000/svg">
<g id="Glyph">
<path id="XMLID_223_" d="M22.2739 19.9761L18.1488 15.8511C19.0011 14.5665 19.5 13.0284 19.5 11.375C19.5 6.89488 15.8551 3.25 11.375 3.25C6.89488 3.25 3.25 6.89488 3.25 11.375C3.25 15.8551 6.89488 19.5 11.375 19.5C13.0284 19.5 14.5665 19.0011 15.8511 18.1488L19.9761 22.2739C20.6099 22.9084 21.6401 22.9084 22.2739 22.2739C22.9084 21.6393 22.9084 20.6107 22.2739 19.9761ZM5.6875 11.375C5.6875 8.23875 8.23875 5.6875 11.375 5.6875C14.5113 5.6875 17.0625 8.23875 17.0625 11.375C17.0625 14.5113 14.5113 17.0625 11.375 17.0625C8.23875 17.0625 5.6875 14.5113 5.6875 11.375Z" fill="#4A3D90"/>
</g>
</svg>
